<svg xmlns="http://www.w3.org/2000/svg" xmlns:xlink="http://www.w3.org/1999/xlink" width="1644.086" height="838.872" viewBox="0 0 1644.086 838.872">
  <defs>
    <clipPath id="clip-path">
      <rect width="52" height="269" fill="none"/>
    </clipPath>
  </defs>
  <g id="Groupe_35" data-name="Groupe 35" transform="translate(1219.543 -1558.543)">
    <path id="Tracé_18" data-name="Tracé 18" d="M-3311.855-247.725c2.146,0-101.052,10.551-165.671,55.484-46.757,32.513-64.862,77.365-67.988,105.5s-8.022,41.591,29.7,100.809c78.219,122.806,235.447,314.7,242.906,325.876,12.347,18.5,35.034,55.746-19.669,98.727-37.51,22.663-100.544,46.152-182.352,3.662C-3548.538,404.1-3613.5,289.924-3613.5,289.924s2.051,37.41-10.826,67.456-30.758,35.152-30.758,35.152c.271.456,52.029,94.936,141.16,132.466,51.365,21.628,120.129,24.75,179.88,23.008,46.717-1.362,142.461-35.1,176.217-83.7s28.528-87.689,18.308-124.358S-3357.459,64.807-3417.353-46.107c-4.049-7.5-19.894-63.674-3.907-95.339C-3391.41-200.572-3316.34-247.725-3311.855-247.725Z" transform="translate(2435.543 1849)" fill="#ff9800"/>
    <path id="Tracé_19" data-name="Tracé 19" d="M-3307.844-98.71c9.538.807,72.929-32.127,135.764-44.5s131.474-24.1,137.454-11.267c13.615,22.93,24.787,65.91-4.055,79.345-48.765,24.561-177.9,6.845-222.405,46.278-13.52,15.773,28.375,63.037,29.6,65.149,54.883,94.959,146.153,214.566,165.671,225.844,3.674,2.123,51.141,56.473,89.217,37.432,43.906-21.957,165.43-164.277,242.125-205.447,71.758-38.52,90.067,0,90.067,0s-14.641,1.758-41.6,17.974-48.466,44.439-48.466,44.439l-146.358,171.2s-32.446,43.789-85.627,62.53c-36.316,12.8-85.106,9.553-99.357-5.633-101.2-107.842-249.331-311.219-307.371-399.968-2.51-3.838-34.258-67.127-30.982-108.38,3.867-48.7,83.654-124,157.169-142.3s175.811-29.164,198.857-20.28c9.3,3.585,23.859,36.079,13.52,57.46s-41.295,23.31-61.4,28.167c-31.511,7.611-110.69,8.6-150.974,18.027-13.048,3.052-51.6,19.964-60.84,31.547C-3320.3-135.491-3319.083-99.66-3307.844-98.71Z" transform="translate(2431.543 1848)" fill="#4e4e50"/>
    <g id="Grille_de_répétition_1" data-name="Grille de répétition 1" transform="translate(-667.457 1824)" clip-path="url(#clip-path)">
      <g transform="translate(3074 36)">
        <g id="Rectangle_13" data-name="Rectangle 13" transform="translate(-3074 -36)" fill="#ff9800" stroke="#ff9800" stroke-width="16">
          <rect width="40" height="20" stroke="none"/>
          <rect x="8" y="8" width="24" height="4" fill="none"/>
        </g>
      </g>
      <g transform="translate(3074 76)">
        <g id="Rectangle_13-2" data-name="Rectangle 13" transform="translate(-3074 -36)" fill="#ff9800" stroke="#ff9800" stroke-width="16">
          <rect width="40" height="20" stroke="none"/>
          <rect x="8" y="8" width="24" height="4" fill="none"/>
        </g>
      </g>
      <g transform="translate(3074 116)">
        <g id="Rectangle_13-3" data-name="Rectangle 13" transform="translate(-3074 -36)" fill="#ff9800" stroke="#ff9800" stroke-width="16">
          <rect width="40" height="20" stroke="none"/>
          <rect x="8" y="8" width="24" height="4" fill="none"/>
        </g>
      </g>
      <g transform="translate(3074 156)">
        <g id="Rectangle_13-4" data-name="Rectangle 13" transform="translate(-3074 -36)" fill="#ff9800" stroke="#ff9800" stroke-width="16">
          <rect width="40" height="20" stroke="none"/>
          <rect x="8" y="8" width="24" height="4" fill="none"/>
        </g>
      </g>
      <g transform="translate(3074 196)">
        <g id="Rectangle_13-5" data-name="Rectangle 13" transform="translate(-3074 -36)" fill="#ff9800" stroke="#ff9800" stroke-width="16">
          <rect width="40" height="20" stroke="none"/>
          <rect x="8" y="8" width="24" height="4" fill="none"/>
        </g>
      </g>
      <g transform="translate(3074 236)">
        <g id="Rectangle_13-6" data-name="Rectangle 13" transform="translate(-3074 -36)" fill="#ff9800" stroke="#ff9800" stroke-width="16">
          <rect width="40" height="20" stroke="none"/>
          <rect x="8" y="8" width="24" height="4" fill="none"/>
        </g>
      </g>
      <g transform="translate(3074 276)">
        <g id="Rectangle_13-7" data-name="Rectangle 13" transform="translate(-3074 -36)" fill="#ff9800" stroke="#ff9800" stroke-width="16">
          <rect width="40" height="20" stroke="none"/>
          <rect x="8" y="8" width="24" height="4" fill="none"/>
        </g>
      </g>
    </g>
    <g id="Grille_de_répétition_2" data-name="Grille de répétition 2" transform="translate(-628.457 1812)" clip-path="url(#clip-path)">
      <g transform="translate(3074 36)">
        <g id="Rectangle_13-8" data-name="Rectangle 13" transform="translate(-3074 -36)" fill="#ff9800" stroke="#ff9800" stroke-width="16">
          <rect width="40" height="20" stroke="none"/>
          <rect x="8" y="8" width="24" height="4" fill="none"/>
        </g>
      </g>
      <g transform="translate(3074 76)">
        <g id="Rectangle_13-9" data-name="Rectangle 13" transform="translate(-3074 -36)" fill="#ff9800" stroke="#ff9800" stroke-width="16">
          <rect width="40" height="20" stroke="none"/>
          <rect x="8" y="8" width="24" height="4" fill="none"/>
        </g>
      </g>
      <g transform="translate(3074 116)">
        <g id="Rectangle_13-10" data-name="Rectangle 13" transform="translate(-3074 -36)" fill="#ff9800" stroke="#ff9800" stroke-width="16">
          <rect width="40" height="20" stroke="none"/>
          <rect x="8" y="8" width="24" height="4" fill="none"/>
        </g>
      </g>
      <g transform="translate(3074 156)">
        <g id="Rectangle_13-11" data-name="Rectangle 13" transform="translate(-3074 -36)" fill="#ff9800" stroke="#ff9800" stroke-width="16">
          <rect width="40" height="20" stroke="none"/>
          <rect x="8" y="8" width="24" height="4" fill="none"/>
        </g>
      </g>
      <g transform="translate(3074 196)">
        <g id="Rectangle_13-12" data-name="Rectangle 13" transform="translate(-3074 -36)" fill="#ff9800" stroke="#ff9800" stroke-width="16">
          <rect width="40" height="20" stroke="none"/>
          <rect x="8" y="8" width="24" height="4" fill="none"/>
        </g>
      </g>
      <g transform="translate(3074 236)">
        <g id="Rectangle_13-13" data-name="Rectangle 13" transform="translate(-3074 -36)" fill="#ff9800" stroke="#ff9800" stroke-width="16">
          <rect width="40" height="20" stroke="none"/>
          <rect x="8" y="8" width="24" height="4" fill="none"/>
        </g>
      </g>
      <g transform="translate(3074 276)">
        <g id="Rectangle_13-14" data-name="Rectangle 13" transform="translate(-3074 -36)" fill="#ff9800" stroke="#ff9800" stroke-width="16">
          <rect width="40" height="20" stroke="none"/>
          <rect x="8" y="8" width="24" height="4" fill="none"/>
        </g>
      </g>
    </g>
    <g id="Grille_de_répétition_3" data-name="Grille de répétition 3" transform="translate(-587.457 1798)" clip-path="url(#clip-path)">
      <g transform="translate(3074 36)">
        <g id="Rectangle_13-15" data-name="Rectangle 13" transform="translate(-3074 -36)" fill="#ff9800" stroke="#ff9800" stroke-width="16">
          <rect width="40" height="20" stroke="none"/>
          <rect x="8" y="8" width="24" height="4" fill="none"/>
        </g>
      </g>
      <g transform="translate(3074 76)">
        <g id="Rectangle_13-16" data-name="Rectangle 13" transform="translate(-3074 -36)" fill="#ff9800" stroke="#ff9800" stroke-width="16">
          <rect width="40" height="20" stroke="none"/>
          <rect x="8" y="8" width="24" height="4" fill="none"/>
        </g>
      </g>
      <g transform="translate(3074 116)">
        <g id="Rectangle_13-17" data-name="Rectangle 13" transform="translate(-3074 -36)" fill="#ff9800" stroke="#ff9800" stroke-width="16">
          <rect width="40" height="20" stroke="none"/>
          <rect x="8" y="8" width="24" height="4" fill="none"/>
        </g>
      </g>
      <g transform="translate(3074 156)">
        <g id="Rectangle_13-18" data-name="Rectangle 13" transform="translate(-3074 -36)" fill="#ff9800" stroke="#ff9800" stroke-width="16">
          <rect width="40" height="20" stroke="none"/>
          <rect x="8" y="8" width="24" height="4" fill="none"/>
        </g>
      </g>
      <g transform="translate(3074 196)">
        <g id="Rectangle_13-19" data-name="Rectangle 13" transform="translate(-3074 -36)" fill="#ff9800" stroke="#ff9800" stroke-width="16">
          <rect width="40" height="20" stroke="none"/>
          <rect x="8" y="8" width="24" height="4" fill="none"/>
        </g>
      </g>
      <g transform="translate(3074 236)">
        <g id="Rectangle_13-20" data-name="Rectangle 13" transform="translate(-3074 -36)" fill="#ff9800" stroke="#ff9800" stroke-width="16">
          <rect width="40" height="20" stroke="none"/>
          <rect x="8" y="8" width="24" height="4" fill="none"/>
        </g>
      </g>
      <g transform="translate(3074 276)">
        <g id="Rectangle_13-21" data-name="Rectangle 13" transform="translate(-3074 -36)" fill="#ff9800" stroke="#ff9800" stroke-width="16">
          <rect width="40" height="20" stroke="none"/>
          <rect x="8" y="8" width="24" height="4" fill="none"/>
        </g>
      </g>
    </g>
    <g id="Grille_de_répétition_4" data-name="Grille de répétition 4" transform="translate(-547.457 1786)" clip-path="url(#clip-path)">
      <g transform="translate(3074 36)">
        <g id="Rectangle_13-22" data-name="Rectangle 13" transform="translate(-3074 -36)" fill="#ff9800" stroke="#ff9800" stroke-width="16">
          <rect width="40" height="20" stroke="none"/>
          <rect x="8" y="8" width="24" height="4" fill="none"/>
        </g>
      </g>
      <g transform="translate(3074 76)">
        <g id="Rectangle_13-23" data-name="Rectangle 13" transform="translate(-3074 -36)" fill="#ff9800" stroke="#ff9800" stroke-width="16">
          <rect width="40" height="20" stroke="none"/>
          <rect x="8" y="8" width="24" height="4" fill="none"/>
        </g>
      </g>
      <g transform="translate(3074 116)">
        <g id="Rectangle_13-24" data-name="Rectangle 13" transform="translate(-3074 -36)" fill="#ff9800" stroke="#ff9800" stroke-width="16">
          <rect width="40" height="20" stroke="none"/>
          <rect x="8" y="8" width="24" height="4" fill="none"/>
        </g>
      </g>
      <g transform="translate(3074 156)">
        <g id="Rectangle_13-25" data-name="Rectangle 13" transform="translate(-3074 -36)" fill="#ff9800" stroke="#ff9800" stroke-width="16">
          <rect width="40" height="20" stroke="none"/>
          <rect x="8" y="8" width="24" height="4" fill="none"/>
        </g>
      </g>
      <g transform="translate(3074 196)">
        <g id="Rectangle_13-26" data-name="Rectangle 13" transform="translate(-3074 -36)" fill="#ff9800" stroke="#ff9800" stroke-width="16">
          <rect width="40" height="20" stroke="none"/>
          <rect x="8" y="8" width="24" height="4" fill="none"/>
        </g>
      </g>
      <g transform="translate(3074 236)">
        <g id="Rectangle_13-27" data-name="Rectangle 13" transform="translate(-3074 -36)" fill="#ff9800" stroke="#ff9800" stroke-width="16">
          <rect width="40" height="20" stroke="none"/>
          <rect x="8" y="8" width="24" height="4" fill="none"/>
        </g>
      </g>
      <g transform="translate(3074 276)">
        <g id="Rectangle_13-28" data-name="Rectangle 13" transform="translate(-3074 -36)" fill="#ff9800" stroke="#ff9800" stroke-width="16">
          <rect width="40" height="20" stroke="none"/>
          <rect x="8" y="8" width="24" height="4" fill="none"/>
        </g>
      </g>
    </g>
    <g id="Grille_de_répétition_5" data-name="Grille de répétition 5" transform="translate(-506.457 1778)" clip-path="url(#clip-path)">
      <g transform="translate(3074 36)">
        <g id="Rectangle_13-29" data-name="Rectangle 13" transform="translate(-3074 -36)" fill="#ff9800" stroke="#ff9800" stroke-width="16">
          <rect width="40" height="20" stroke="none"/>
          <rect x="8" y="8" width="24" height="4" fill="none"/>
        </g>
      </g>
      <g transform="translate(3074 76)">
        <g id="Rectangle_13-30" data-name="Rectangle 13" transform="translate(-3074 -36)" fill="#ff9800" stroke="#ff9800" stroke-width="16">
          <rect width="40" height="20" stroke="none"/>
          <rect x="8" y="8" width="24" height="4" fill="none"/>
        </g>
      </g>
      <g transform="translate(3074 116)">
        <g id="Rectangle_13-31" data-name="Rectangle 13" transform="translate(-3074 -36)" fill="#ff9800" stroke="#ff9800" stroke-width="16">
          <rect width="40" height="20" stroke="none"/>
          <rect x="8" y="8" width="24" height="4" fill="none"/>
        </g>
      </g>
      <g transform="translate(3074 156)">
        <g id="Rectangle_13-32" data-name="Rectangle 13" transform="translate(-3074 -36)" fill="#ff9800" stroke="#ff9800" stroke-width="16">
          <rect width="40" height="20" stroke="none"/>
          <rect x="8" y="8" width="24" height="4" fill="none"/>
        </g>
      </g>
      <g transform="translate(3074 196)">
        <g id="Rectangle_13-33" data-name="Rectangle 13" transform="translate(-3074 -36)" fill="#ff9800" stroke="#ff9800" stroke-width="16">
          <rect width="40" height="20" stroke="none"/>
          <rect x="8" y="8" width="24" height="4" fill="none"/>
        </g>
      </g>
      <g transform="translate(3074 236)">
        <g id="Rectangle_13-34" data-name="Rectangle 13" transform="translate(-3074 -36)" fill="#ff9800" stroke="#ff9800" stroke-width="16">
          <rect width="40" height="20" stroke="none"/>
          <rect x="8" y="8" width="24" height="4" fill="none"/>
        </g>
      </g>
      <g transform="translate(3074 276)">
        <g id="Rectangle_13-35" data-name="Rectangle 13" transform="translate(-3074 -36)" fill="#ff9800" stroke="#ff9800" stroke-width="16">
          <rect width="40" height="20" stroke="none"/>
          <rect x="8" y="8" width="24" height="4" fill="none"/>
        </g>
      </g>
    </g>
    <text id="SEMI" transform="translate(-289.457 2146)" fill="#4e4e50" font-size="214" font-family="Poppins-Regular, Poppins" letter-spacing="-0.073em"><tspan x="0" y="0">SEMI</tspan></text>
    <text id="FERMETURES" transform="translate(-485.457 2334)" fill="#ff9800" font-size="156" font-family="Poppins-SemiBold, Poppins" font-weight="600" letter-spacing="-0.04em"><tspan x="0" y="0">FERMETURES</tspan></text>
  </g>
</svg>
