<svg xmlns="http://www.w3.org/2000/svg" width="702.728" height="351.669" viewBox="0 0 702.728 351.669">
  <g id="Groupe_31" data-name="Groupe 31" transform="translate(-7035.876 -524.483)">
    <g id="Groupe_25" data-name="Groupe 25" transform="translate(996)">
      <path id="Tracé_16" data-name="Tracé 16" d="M836.319,334v62.511S680.2,466.332,674.548,471.469s-7.091,13.753-7.091,13.753l-.248,50.1s.868,3.471,3.306,5.124a9.214,9.214,0,0,0,6.447,1.488c1.736-.165,158.275-71.41,158.275-71.41l-.083,63.558S684.235,601.279,675.639,606.32s-8.265,11.406-8.265,11.406l-.165,67.943h-54.88s-.083-19.263.165-79.514-.165-100.833-.165-100.833-1.075-35.7.248-42.73,2.669-11.21,7.56-19.375,6.243-8.643,14.094-15.008S836.319,334,836.319,334Z" transform="translate(5427.958 190.483)" fill="#fff"/>
      <path id="Tracé_15" data-name="Tracé 15" d="M867.781,456.679s195.2-88.612,199.559-89.52,10.213-1.716,15.979,1.634a19.213,19.213,0,0,1,9.079,13.074c.908,4.358.908,71,.908,71a14.024,14.024,0,0,0,5.084,6.355c3.995,2.905,10.895,0,10.895,0l166.329-113.489a29.565,29.565,0,0,1,15.071-2c7.808,1.271,11.734,7.585,13.8,15.253s.74,328.5.74,328.5h-57.268l-1.13-236.687s-3.069-13.2-15.651-4.91-154.47,114.868-159.628,117.554c-8.81,3.653-16.617,5.472-24.6,1.5-6.934-3.443-9.455-14.452-9.455-16.009,0-3.223-.292-92.258-.292-92.258s-1.089-8.716-7.626-7.626-161.79,71.18-161.79,71.18Z" transform="translate(5436.958 188.042)" fill="#ed202b"/>
      <path id="Tracé_3" data-name="Tracé 3" d="M696.941,746.577V674.2h47.074v7.58H717.286v23.537h22.34V711.7h-22.34v34.876Z" transform="translate(5443.958 129.282)" fill="#fff"/>
      <path id="Tracé_4" data-name="Tracé 4" d="M803.855,674.2H757.978V746.01l48.686-.432v-6.2H777.526V711.3h21.543v-7.58H777.526v-22.34h26.33Z" transform="translate(5443.958 129.282)" fill="#fff"/>
      <path id="Tracé_8" data-name="Tracé 8" d="M803.855,674.2H757.978V746.01l48.686-.432v-6.2H777.526V711.3h21.543v-7.58H777.526v-22.34h26.33Z" transform="translate(5663.958 129.282)" fill="#e7bc1a"/>
      <path id="Soustraction_1" data-name="Soustraction 1" d="M19.548,70.8H0L.33,0H39.763a31.192,31.192,0,0,1,8.416,3.509,21.677,21.677,0,0,1,6.038,5.274,15.95,15.95,0,0,1,3.275,8.408,13.768,13.768,0,0,1-1.9,8.492,17.972,17.972,0,0,1-5.337,5.459,28.6,28.6,0,0,1-8.131,3.778L59.839,70.793H36.432L24.076,36.209h-3.76l-.768,34.586Zm1.2-64.671V30.73h8.6s.034,0,.1,0a6.459,6.459,0,0,0,4.057-1.591c2.265-1.925,3.434-5.295,3.476-10.015.055-6.216-2.2-9.42-4.1-11.013A8.814,8.814,0,0,0,28.7,6.124Z" transform="translate(6265.367 804.483)" fill="#fff"/>
      <path id="Tracé_7" data-name="Tracé 7" d="M893.021,746.409V675.122h22.516l11.984,41.038,12.892-41.038h20.156v71.287H940.413V701.27l-12.892,45.139H914.629l-13.8-45.139v45.139Z" transform="translate(5443.958 129.361)" fill="#e7bc1a"/>
      <path id="Tracé_9" data-name="Tracé 9" d="M1034.11,682.2v-7.263h58.833V682.2H1074.6v65.188h-22.7V682.2Z" transform="translate(5443.958 128.543)" fill="#e7bc1a"/>
      <path id="Soustraction_2" data-name="Soustraction 2" d="M59.378,70.092H37.95L35.045,55.927h-22.7L8.9,70.091H0L21.426,0h18.34L59.378,70.091Zm-35.045-52.3L15.253,48.119H33.23Z" transform="translate(6541.077 805.483)" fill="#e7bc1a"/>
      <path id="Tracé_12" data-name="Tracé 12" d="M1169.752,674.941H1191.9v65.188h29.053v7.082h-51.206Z" transform="translate(5443.958 128.543)" fill="#e7bc1a"/>
    </g>
  </g>
</svg>
