<svg xmlns="http://www.w3.org/2000/svg" width="31.83" height="31.828" viewBox="0 0 31.83 31.828">
  <path id="Tracé_743" data-name="Tracé 743" d="M25.2,23.419l-.805.848s-1.914,2.015-7.14-3.486-3.311-7.517-3.311-7.517l.507-.534a3.955,3.955,0,0,0,.277-4.969L12.5,4.608A3.542,3.542,0,0,0,7,4.076L4.223,7a4.079,4.079,0,0,0-1.218,3.015c.159,2.97,1.429,9.359,8.51,16.815,7.51,7.906,14.556,8.22,17.438,7.936A3.785,3.785,0,0,0,31.3,33.509l2.512-2.645a3.982,3.982,0,0,0-.952-6.094l-3.378-1.945A3.456,3.456,0,0,0,25.2,23.419Z" transform="translate(-3 -3)" fill="#fff"/>
</svg>
