<svg xmlns="http://www.w3.org/2000/svg" width="19.724" height="27.857" viewBox="0 0 19.724 27.857">
  <path id="Icon_awesome-map-marker-alt" data-name="Icon awesome-map-marker-alt" d="M8.848,27.3C1.385,15.835,0,14.658,0,10.447,0,4.677,4.415,0,9.862,0s9.862,4.677,9.862,10.447c0,4.212-1.385,5.388-8.848,16.849a1.2,1.2,0,0,1-2.027,0ZM9.862,14.8a4.236,4.236,0,0,0,4.109-4.353A4.236,4.236,0,0,0,9.862,6.094a4.236,4.236,0,0,0-4.109,4.353A4.236,4.236,0,0,0,9.862,14.8Z" transform="translate(0)" fill="red"/>
</svg>
