<svg xmlns="http://www.w3.org/2000/svg" width="25" height="33.333" viewBox="0 0 25 33.333">
  <path id="Icon_awesome-file-invoice" data-name="Icon awesome-file-invoice" d="M18.75,16.667H6.25v4.167h12.5Zm5.794-9.831L18.171.456A1.561,1.561,0,0,0,17.064,0h-.4V8.333H25v-.4A1.558,1.558,0,0,0,24.544,6.836ZM14.583,8.854V0H1.563A1.559,1.559,0,0,0,0,1.563V31.771a1.559,1.559,0,0,0,1.563,1.562H23.438A1.559,1.559,0,0,0,25,31.771V10.417H16.146A1.567,1.567,0,0,1,14.583,8.854ZM4.167,4.687a.521.521,0,0,1,.521-.521H9.9a.521.521,0,0,1,.521.521V5.729A.521.521,0,0,1,9.9,6.25H4.687a.521.521,0,0,1-.521-.521Zm0,4.167a.521.521,0,0,1,.521-.521H9.9a.521.521,0,0,1,.521.521V9.9a.521.521,0,0,1-.521.521H4.687A.521.521,0,0,1,4.167,9.9ZM20.833,28.646a.521.521,0,0,1-.521.521H15.1a.521.521,0,0,1-.521-.521V27.6a.521.521,0,0,1,.521-.521h5.208a.521.521,0,0,1,.521.521Zm0-13.021v6.25a1.041,1.041,0,0,1-1.042,1.042H5.208a1.041,1.041,0,0,1-1.042-1.042v-6.25a1.041,1.041,0,0,1,1.042-1.042H19.792A1.041,1.041,0,0,1,20.833,15.625Z" fill="#28282b"/>
</svg>
