<svg xmlns="http://www.w3.org/2000/svg" width="42.865" height="33.333" viewBox="0 0 42.865 33.333">
  <path id="Icon_awesome-home" data-name="Icon awesome-home" d="M20.863,10.9,7.144,22.2V34.4a1.191,1.191,0,0,0,1.191,1.191l8.339-.022a1.191,1.191,0,0,0,1.185-1.191V27.253a1.191,1.191,0,0,1,1.191-1.191h4.762A1.191,1.191,0,0,1,25,27.253V34.37a1.191,1.191,0,0,0,1.191,1.194l8.336.023A1.191,1.191,0,0,0,35.718,34.4v-12.2L22,10.9A.907.907,0,0,0,20.863,10.9Zm21.671,7.68-6.221-5.128V3.146a.893.893,0,0,0-.893-.893H31.254a.893.893,0,0,0-.893.893v5.4L23.7,3.068a3.572,3.572,0,0,0-4.539,0L.323,18.581A.893.893,0,0,0,.2,19.839l1.9,2.307a.893.893,0,0,0,1.258.121L20.863,7.85A.907.907,0,0,1,22,7.85l17.5,14.417a.893.893,0,0,0,1.258-.119l1.9-2.307a.893.893,0,0,0-.126-1.26Z" transform="translate(0.001 -2.254)" fill="#28282b"/>
</svg>
