<svg xmlns="http://www.w3.org/2000/svg" width="60" height="47" viewBox="0 0 60 47">
  <g id="Groupe_942" data-name="Groupe 942" transform="translate(-15 -433.576)">
    <path id="Rectangle_24700" data-name="Rectangle 24700" d="M23.5,0H60a0,0,0,0,1,0,0V47a0,0,0,0,1,0,0H23.5A23.5,23.5,0,0,1,0,23.5v0A23.5,23.5,0,0,1,23.5,0Z" transform="translate(15 433.576)" fill="#e7bc1b"/>
    <g id="phone-calling-svgrepo-com" transform="translate(30.355 442.934)">
      <path id="Tracé_743" data-name="Tracé 743" d="M19.246,17.94l-.589.62s-1.4,1.475-5.224-2.55-2.423-5.5-2.423-5.5l.371-.391a2.894,2.894,0,0,0,.2-3.636L9.952,4.177a2.591,2.591,0,0,0-4.026-.389L3.9,5.925A2.985,2.985,0,0,0,3,8.131c.117,2.173,1.045,6.848,6.227,12.3,5.495,5.785,10.65,6.014,12.759,5.806a2.769,2.769,0,0,0,1.714-.917l1.838-1.935a2.913,2.913,0,0,0-.7-4.459l-2.472-1.423A2.528,2.528,0,0,0,19.246,17.94Z" transform="translate(-3 -0.122)" fill="#fff"/>
      <path id="Tracé_744" data-name="Tracé 744" d="M13.266,2.286a1.235,1.235,0,0,1,1.417-1.02c.042.008.176.033.246.049.14.031.336.079.58.15a14.615,14.615,0,0,1,1.988.751,21.111,21.111,0,0,1,6.081,4.327A21.108,21.108,0,0,1,27.9,12.625a14.6,14.6,0,0,1,.752,1.988c.071.244.119.44.15.58.016.07.027.127.035.168l.01.051a1.258,1.258,0,0,1-1.016,1.443,1.233,1.233,0,0,1-1.414-1.015c0-.018-.013-.066-.023-.112-.02-.091-.055-.236-.111-.427a12.161,12.161,0,0,0-.626-1.65,18.651,18.651,0,0,0-3.829-5.365,18.651,18.651,0,0,0-5.365-3.829,12.159,12.159,0,0,0-1.65-.625c-.191-.056-.431-.111-.522-.131A1.248,1.248,0,0,1,13.266,2.286Z" transform="translate(-2.705 -1.25)" fill="#fff"/>
      <path id="Tracé_745" data-name="Tracé 745" d="M13.5,5.68a1.233,1.233,0,0,1,1.525-.847L14.69,6.019l.339-1.186h0l.005,0,.013,0,.033.01.093.031c.074.026.172.063.291.115a8.485,8.485,0,0,1,.969.5,16.445,16.445,0,0,1,3.194,2.558,16.439,16.439,0,0,1,2.558,3.194,8.5,8.5,0,0,1,.5.969c.051.12.089.217.115.291.013.037.023.068.031.093l.01.033,0,.013,0,.005v0s0,0-1.185.341l1.186-.339a1.233,1.233,0,0,1-2.367.694l-.006-.018c-.009-.025-.027-.073-.057-.144a6.034,6.034,0,0,0-.355-.684A14.011,14.011,0,0,0,17.888,9.8a14.009,14.009,0,0,0-2.707-2.18,6.023,6.023,0,0,0-.684-.355c-.071-.03-.12-.049-.144-.057L14.335,7.2A1.233,1.233,0,0,1,13.5,5.68Z" transform="translate(-0.973 -0.565)" fill="#fff" fill-rule="evenodd"/>
    </g>
  </g>
</svg>
