<svg xmlns="http://www.w3.org/2000/svg" width="60" height="47" viewBox="0 0 60 47">
  <g id="Groupe_943" data-name="Groupe 943" transform="translate(-306 -492.649)">
    <path id="Rectangle_24701" data-name="Rectangle 24701" d="M0,0H36.5A23.5,23.5,0,0,1,60,23.5v0A23.5,23.5,0,0,1,36.5,47H0a0,0,0,0,1,0,0V0A0,0,0,0,1,0,0Z" transform="translate(306 492.649)" fill="#28282b"/>
    <path id="Icon_awesome-file-invoice" data-name="Icon awesome-file-invoice" d="M14.038,10.249H4.679v2.562h9.359ZM18.376,4.2,13.6.28A1.31,1.31,0,0,0,12.775,0h-.3V5.124h6.239V4.88A.88.88,0,0,0,18.376,4.2ZM10.918,5.445V0H1.17A1.078,1.078,0,0,0,0,.961V19.536a1.078,1.078,0,0,0,1.17.961H17.547a1.078,1.078,0,0,0,1.17-.961V6.405H12.088A1.084,1.084,0,0,1,10.918,5.445ZM3.12,2.882a.36.36,0,0,1,.39-.32h3.9a.36.36,0,0,1,.39.32v.641a.36.36,0,0,1-.39.32h-3.9a.36.36,0,0,1-.39-.32Zm0,2.562a.36.36,0,0,1,.39-.32h3.9a.36.36,0,0,1,.39.32v.641a.36.36,0,0,1-.39.32h-3.9a.36.36,0,0,1-.39-.32ZM15.6,17.615a.36.36,0,0,1-.39.32h-3.9a.36.36,0,0,1-.39-.32v-.641a.36.36,0,0,1,.39-.32h3.9a.36.36,0,0,1,.39.32Zm0-8.007v3.843a.72.72,0,0,1-.78.641H3.9a.72.72,0,0,1-.78-.641V9.608a.72.72,0,0,1,.78-.641H14.818A.72.72,0,0,1,15.6,9.608Z" transform="translate(323 506.355)" fill="#fff"/>
  </g>
</svg>
