<svg xmlns="http://www.w3.org/2000/svg" xmlns:xlink="http://www.w3.org/1999/xlink" width="88" height="88" viewBox="0 0 88 88">
  <defs>
    <linearGradient id="linear-gradient" x1="0.812" y1="0.127" x2="0.085" y2="1" gradientUnits="objectBoundingBox">
      <stop offset="0" stop-color="red"/>
      <stop offset="1" stop-color="#9b0000"/>
    </linearGradient>
    <filter id="Ellipse_44" x="0" y="0" width="88" height="88" filterUnits="userSpaceOnUse">
      <feOffset dy="2" input="SourceAlpha"/>
      <feGaussianBlur stdDeviation="3" result="blur"/>
      <feFlood flood-opacity="0.161"/>
      <feComposite operator="in" in2="blur"/>
      <feComposite in="SourceGraphic"/>
    </filter>
  </defs>
  <g id="Groupe_944" data-name="Groupe 944" transform="translate(-146 -752)">
    <g transform="matrix(1, 0, 0, 1, 146, 752)" filter="url(#Ellipse_44)">
      <circle id="Ellipse_44-2" data-name="Ellipse 44" cx="35" cy="35" r="35" transform="translate(9 7)" fill="url(#linear-gradient)"/>
    </g>
    <g id="phone-calling-svgrepo-com" transform="translate(171.086 775.299)">
      <path id="Tracé_743" data-name="Tracé 743" d="M25.2,23.419l-.805.848s-1.914,2.015-7.14-3.486-3.311-7.517-3.311-7.517l.507-.534a3.955,3.955,0,0,0,.277-4.969L12.5,4.608A3.542,3.542,0,0,0,7,4.076L4.223,7a4.079,4.079,0,0,0-1.218,3.015c.159,2.97,1.429,9.359,8.51,16.815,7.51,7.906,14.556,8.22,17.438,7.936A3.785,3.785,0,0,0,31.3,33.509l2.512-2.645a3.982,3.982,0,0,0-.952-6.094l-3.378-1.945A3.456,3.456,0,0,0,25.2,23.419Z" transform="translate(-3 2.573)" fill="#fff"/>
      <path id="Tracé_744" data-name="Tracé 744" d="M13.273,2.764a1.805,1.805,0,0,1,2.071-1.491c.061.012.257.048.359.071.205.046.491.116.848.22a21.365,21.365,0,0,1,2.906,1.1,30.861,30.861,0,0,1,8.889,6.326,30.858,30.858,0,0,1,6.326,8.889,21.335,21.335,0,0,1,1.1,2.906c.1.357.174.643.22.848.023.1.04.185.051.246l.014.075a1.84,1.84,0,0,1-1.485,2.11,1.8,1.8,0,0,1-2.066-1.483c-.005-.026-.019-.1-.034-.163-.03-.133-.081-.344-.162-.624a17.777,17.777,0,0,0-.914-2.412,27.265,27.265,0,0,0-5.6-7.842,27.265,27.265,0,0,0-7.842-5.6,17.775,17.775,0,0,0-2.412-.914c-.279-.081-.63-.162-.763-.192A1.824,1.824,0,0,1,13.273,2.764Z" transform="translate(1.749 -1.25)" fill="#fff"/>
      <path id="Tracé_745" data-name="Tracé 745" d="M13.526,6.093a1.8,1.8,0,0,1,2.229-1.238l-.5,1.734.5-1.734h.007l.008,0,.019.006.048.015.135.046c.108.038.251.093.426.168a12.4,12.4,0,0,1,1.417.73,24.04,24.04,0,0,1,4.67,3.74,24.032,24.032,0,0,1,3.74,4.67,12.419,12.419,0,0,1,.73,1.417c.075.175.13.318.168.426.019.054.034.1.046.135l.015.048.006.019,0,.008v0s0,0-1.733.5l1.734-.5a1.8,1.8,0,0,1-3.46,1.015l-.009-.026c-.013-.036-.039-.107-.084-.211a8.82,8.82,0,0,0-.519-1,20.482,20.482,0,0,0-3.187-3.957,20.48,20.48,0,0,0-3.957-3.187,8.8,8.8,0,0,0-1-.519c-.1-.044-.175-.071-.211-.084l-.026-.009A1.8,1.8,0,0,1,13.526,6.093Z" transform="translate(3.138 2.192)" fill="#fff" fill-rule="evenodd"/>
    </g>
  </g>
</svg>
