<svg xmlns="http://www.w3.org/2000/svg" width="59.505" height="57.225" viewBox="0 0 59.505 57.225">
  <g id="Groupe_220" data-name="Groupe 220" transform="translate(1 1.012)">
    <g id="Groupe_193" data-name="Groupe 193">
      <g id="Groupe_192" data-name="Groupe 192">
        <path id="Tracé_713" data-name="Tracé 713" d="M7880.462,1760.429a14.883,14.883,0,0,0,.657-6.727,15.294,15.294,0,0,0-30.47,1.9,15.663,15.663,0,0,0,.175,2.323,15.024,15.024,0,0,0,6.813,10.5m15.323-19q-3.756,3.742-7.5,7.5c-.525.525-1.044,1.056-1.576,1.573a1.7,1.7,0,0,1-2.707-.164q-1.852-2.321-3.689-4.648" transform="translate(-7850.649 -1740.3)" fill="none" stroke="red" stroke-linecap="round" stroke-linejoin="round" stroke-miterlimit="10" stroke-width="2"/>
        <g id="Groupe_191" data-name="Groupe 191" transform="translate(25.68 43.902)">
          <ellipse id="Ellipse_39" data-name="Ellipse 39" cx="3.168" cy="3.168" rx="3.168" ry="3.168" transform="translate(0 4.974)" fill="none" stroke="red" stroke-linecap="round" stroke-linejoin="round" stroke-miterlimit="10" stroke-width="2"/>
          <line id="Ligne_188" data-name="Ligne 188" y1="5.86" x2="5.89" transform="translate(5.364)" fill="none" stroke="red" stroke-linecap="round" stroke-linejoin="round" stroke-miterlimit="10" stroke-width="2"/>
        </g>
        <path id="Tracé_714" data-name="Tracé 714" d="M7920.85,2008.94a19.3,19.3,0,1,1,38.6,0" transform="translate(-7911.196 -1955.352)" fill="none" stroke="red" stroke-linecap="round" stroke-linejoin="round" stroke-miterlimit="10" stroke-width="2"/>
        <path id="Tracé_715" data-name="Tracé 715" d="M7851.15,1949.534a28.715,28.715,0,1,1,57.429,0" transform="translate(-7851.081 -1895.995)" fill="none" stroke="red" stroke-linecap="round" stroke-linejoin="round" stroke-miterlimit="10" stroke-width="2"/>
        <line id="Ligne_189" data-name="Ligne 189" x2="8.263" y2="5.171" transform="translate(3.753 39.026)" fill="none" stroke="red" stroke-linecap="round" stroke-linejoin="round" stroke-miterlimit="10" stroke-width="2"/>
        <line id="Ligne_190" data-name="Ligne 190" x2="5.406" y2="7.903" transform="translate(13.626 29.247)" fill="none" stroke="red" stroke-linecap="round" stroke-linejoin="round" stroke-miterlimit="10" stroke-width="2"/>
        <line id="Ligne_191" data-name="Ligne 191" x2="0.171" y2="9.464" transform="translate(28.783 24.824)" fill="none" stroke="red" stroke-linecap="round" stroke-linejoin="round" stroke-miterlimit="10" stroke-width="2"/>
        <line id="Ligne_192" data-name="Ligne 192" x1="5" y2="7.611" transform="translate(38.422 28.832)" fill="none" stroke="red" stroke-linecap="round" stroke-linejoin="round" stroke-miterlimit="10" stroke-width="2"/>
        <line id="Ligne_193" data-name="Ligne 193" y1="4.758" x2="7.986" transform="translate(45.672 39.181)" fill="none" stroke="red" stroke-linecap="round" stroke-linejoin="round" stroke-miterlimit="10" stroke-width="2"/>
      </g>
      <line id="Ligne_194" data-name="Ligne 194" y1="0.05" x2="9.245" transform="translate(48.254 53.539)" fill="none" stroke="red" stroke-linecap="round" stroke-linejoin="round" stroke-miterlimit="10" stroke-width="2"/>
      <line id="Ligne_195" data-name="Ligne 195" x1="9.585" y1="0.05" transform="translate(0.069 53.539)" fill="none" stroke="red" stroke-linecap="round" stroke-linejoin="round" stroke-miterlimit="10" stroke-width="2"/>
    </g>
  </g>
</svg>
