<svg xmlns="http://www.w3.org/2000/svg" width="56.158" height="56.57" viewBox="0 0 56.158 56.57">
  <g id="Groupe_219" data-name="Groupe 219" transform="translate(1 1)">
    <path id="Tracé_1167" data-name="Tracé 1167" d="M2871.4,52.154V43.041a1.976,1.976,0,0,0-1.941-1.941H2864m-25.216,0h-5.614a1.967,1.967,0,0,0-1.941,1.941V89.9a1.959,1.959,0,0,0,1.941,1.941h36.286A1.966,1.966,0,0,0,2871.4,89.9V75.146M2880.49,49.7l4.9,4.9-25.419,25.419c-5.068,5.068-9.966.169-4.9-4.9L2880.49,49.7h0Zm-5.413,21.585,9.513-9.478-8.134-8.133M2850.9,84.022l2.737-2.739" transform="translate(-2831.23 -37.273)" fill="none" stroke="red" stroke-linecap="round" stroke-linejoin="round" stroke-width="2"/>
    <path id="Tracé_1168" data-name="Tracé 1168" d="M2931.89,115.81h14.968m-14.968,7.613h14.968" transform="translate(-2915.665 -99.941)" fill="none" stroke="red" stroke-linecap="round" stroke-linejoin="round" stroke-width="2"/>
    <line id="Ligne_199" data-name="Ligne 199" x2="7.353" transform="translate(16.225 31.096)" fill="none" stroke="red" stroke-linecap="round" stroke-linejoin="round" stroke-width="2"/>
    <path id="Tracé_1169" data-name="Tracé 1169" d="M2901.02,24.426h17.673V17.36H2901.02v7.066Z" transform="translate(-2889.771 -17.36)" fill="none" stroke="red" stroke-linecap="round" stroke-linejoin="round" stroke-width="2"/>
    <path id="Tracé_1170" data-name="Tracé 1170" d="M2868.183,100.085l1.879,2.452,3.838-4.966m-5.716,10.355,1.879,2.452,3.838-4.966m-5.772,10.3,1.879,2.452,3.838-4.966" transform="translate(-2862.182 -84.641)" fill="none" stroke="red" stroke-linecap="round" stroke-linejoin="round" stroke-width="2"/>
  </g>
</svg>
