<svg xmlns="http://www.w3.org/2000/svg" width="61.202" height="64.954" viewBox="0 0 61.202 64.954">
  <g id="Groupe_157" data-name="Groupe 157" transform="translate(1.005 1)">
    <g id="Groupe_156" data-name="Groupe 156" transform="translate(6.003 19.174)">
      <path id="Tracé_584" data-name="Tracé 584" d="M1647.226,1990.028a18.809,18.809,0,0,0-15.9-4.254,19.115,19.115,0,0,0-15.443,15.054c-.287,1.331.1,1.822,1.462,1.822h28.3" transform="translate(-1615.795 -1964.701)" fill="none" stroke="red" stroke-linecap="round" stroke-linejoin="round" stroke-miterlimit="10" stroke-width="2"/>
      <path id="Tracé_585" data-name="Tracé 585" d="M1852.372,1995.209a10.839,10.839,0,1,0,10.9,10.8A10.841,10.841,0,0,0,1852.372,1995.209ZM1858.5,2004c-2.083,2.108-4.16,4.221-6.253,6.318a1.594,1.594,0,0,1-2.465,0q-1.709-1.674-3.384-3.384" transform="translate(-1810.081 -1973.107)" fill="none" stroke="red" stroke-linecap="round" stroke-linejoin="round" stroke-miterlimit="10" stroke-width="2"/>
      <path id="Tracé_586" data-name="Tracé 586" d="M1698.454,1836.78a8.646,8.646,0,1,0,8.645,8.663A8.655,8.655,0,0,0,1698.454,1836.78Z" transform="translate(-1679.484 -1836.78)" fill="none" stroke="red" stroke-linecap="round" stroke-linejoin="round" stroke-miterlimit="10" stroke-width="2"/>
    </g>
    <path id="Tracé_587" data-name="Tracé 587" d="M1581.127,1759.764c1.2.812,2.409,1.6,3.624,2.383.2.131.409.4.7.187s.137-.513.065-.778c-.36-1.331-.7-2.667-1.1-3.987a.951.951,0,0,1,.388-1.219c1.124-.84,2.2-1.744,3.291-2.625.2-.161.481-.3.373-.622s-.413-.268-.67-.28c-1.468-.074-2.935-.159-4.4-.212a.722.722,0,0,1-.749-.569c-.5-1.378-1.028-2.744-1.556-4.11-.089-.231-.128-.545-.493-.519-.311.022-.344.294-.428.513-.516,1.348-1.048,2.69-1.536,4.047a.806.806,0,0,1-.837.645c-1.447.042-2.893.132-4.339.207-.255.012-.561-.053-.668.279s.173.464.371.625c1.091.883,2.171,1.783,3.291,2.627a.926.926,0,0,1,.389,1.168c-.427,1.448-.8,2.911-1.2,4.368a.376.376,0,0,0,.162.456c.211.152.377.014.537-.091,1.267-.823,2.543-1.635,3.79-2.487A.76.76,0,0,1,1581.127,1759.764Z" transform="translate(-1572.763 -1740.703)" fill="none" stroke="red" stroke-linecap="round" stroke-linejoin="round" stroke-miterlimit="10" stroke-width="2"/>
    <path id="Tracé_588" data-name="Tracé 588" d="M1822.618,1753.73c1.074.869,2.13,1.762,3.234,2.592a.922.922,0,0,1,.381,1.167c-.427,1.448-.8,2.91-1.2,4.367a.385.385,0,0,0,.173.455c.214.147.377,0,.537-.1,1.249-.812,2.509-1.609,3.733-2.454a.84.84,0,0,1,1.111.012c1.156.791,2.335,1.551,3.516,2.307.219.141.434.448.75.215s.127-.52.057-.783c-.371-1.4-.734-2.794-1.141-4.18a.712.712,0,0,1,.289-.893c1.159-.9,2.3-1.832,3.442-2.755.2-.161.476-.3.36-.628s-.42-.258-.675-.271c-1.424-.071-2.849-.167-4.273-.2a.888.888,0,0,1-.931-.713c-.477-1.339-.99-2.665-1.5-3.993-.082-.215-.12-.5-.435-.511-.354-.014-.395.286-.487.526-.522,1.369-1.056,2.733-1.557,4.11a.732.732,0,0,1-.759.565c-1.447.052-2.894.135-4.339.212-.271.014-.615-.084-.723.29S1822.4,1753.557,1822.618,1753.73Z" transform="translate(-1787.369 -1740.666)" fill="none" stroke="red" stroke-linecap="round" stroke-linejoin="round" stroke-miterlimit="10" stroke-width="2"/>
    <path id="Tracé_589" data-name="Tracé 589" d="M1697.822,1705.651c1.109.9,2.21,1.8,3.341,2.669a.9.9,0,0,1,.368,1.119c-.409,1.385-.77,2.783-1.148,4.177-.061.229-.178.473.08.658s.452-.012.649-.14c1.211-.79,2.436-1.56,3.622-2.384a.876.876,0,0,1,1.166.014c1.209.832,2.448,1.62,3.677,2.422.162.106.327.24.54.113.152-.089.193-.229.169-.477-.018-.067-.058-.215-.1-.363-.375-1.4-.734-2.794-1.137-4.181a.674.674,0,0,1,.268-.84c1.156-.907,2.3-1.834,3.439-2.758.2-.16.493-.293.4-.614-.1-.356-.444-.3-.721-.312-1.424-.067-2.849-.14-4.274-.183a.814.814,0,0,1-.852-.632c-.49-1.381-1.024-2.745-1.551-4.113-.082-.215-.137-.5-.453-.488s-.361.273-.446.5c-.522,1.37-1.062,2.731-1.554,4.111a.816.816,0,0,1-.862.624c-1.448.044-2.893.117-4.34.186-.234.011-.512-.025-.622.258C1697.352,1705.344,1697.624,1705.49,1697.822,1705.651Z" transform="translate(-1680.053 -1699.338)" fill="none" stroke="red" stroke-linecap="round" stroke-linejoin="round" stroke-miterlimit="10" stroke-width="2"/>
  </g>
</svg>
