<svg xmlns="http://www.w3.org/2000/svg" width="57.049" height="60.695" viewBox="0 0 57.049 60.695">
  <g id="Groupe_221" data-name="Groupe 221" transform="translate(1.011 1)">
    <path id="Tracé_1084" data-name="Tracé 1084" d="M2853.594,642.72a5.951,5.951,0,1,0,2.926.8,5.763,5.763,0,0,0-2.926-.8h0Zm-.436,37.961.014,17.528c0,4.128-7.317,4.066-7.273-.062l.149-12.329.092-11.57m-.744-7.578-4.49,7.878c-2.092,5.5-6.626,1.921-5.672-.585l6.272-13.163c.4-1.467,2.342-2.421,5.918-2.89m12.046-.1c2.914.525,5.06,1.4,5.338,2.605l1.283,3.87m-5.286,28.191c0,.263-.141,6.22-.189,6.448-.8,3.682-7.447,3.113-7.449-.78m21.822-.178c-9.045-3.915-15.153-11.344-15.153-19.866,0-4.367.052-7.893.052-12.264,1.356,1.6,3.777,2.686,7.234,2.686s6.934-1.561,7.866-3.68c.932,2.121,4.409,3.68,7.866,3.68s5.878-1.09,7.235-2.686c0,4.371.052,7.9.052,12.264,0,8.522-6.108,15.951-15.153,19.866Z" transform="translate(-2835.104 -642.72)" fill="none" stroke="red" stroke-linecap="round" stroke-linejoin="round" stroke-width="2"/>
    <path id="Tracé_1085" data-name="Tracé 1085" d="M3037.43,846.011l4.195,5.476,8.567-11.087" transform="translate(-3002.866 -808.543)" fill="none" stroke="red" stroke-linecap="round" stroke-linejoin="round" stroke-width="2"/>
  </g>
</svg>
