<svg id="Groupe_23" data-name="Groupe 23" xmlns="http://www.w3.org/2000/svg" width="112.987" height="56.543" viewBox="0 0 112.987 56.543">
  <path id="Tracé_16" data-name="Tracé 16" d="M648.722,334v10.051s-25.606,11.226-26.533,12.052a4.3,4.3,0,0,0-1.163,2.211l-.041,8.055a1.575,1.575,0,0,0,.542.824,1.535,1.535,0,0,0,1.057.239c.285-.027,25.959-11.482,25.959-11.482l-.014,10.219s-24.753,10.8-26.163,11.615-1.356,1.834-1.356,1.834l-.027,10.924h-9s-.014-3.1.027-12.785-.027-16.212-.027-16.212-.176-5.74.041-6.87a7.9,7.9,0,0,1,1.24-3.115,6.856,6.856,0,0,1,2.312-2.413C616.864,348.124,648.722,334,648.722,334Z" transform="translate(-611.917 -334)" fill="#fff"/>
  <path id="Tracé_15" data-name="Tracé 15" d="M867.781,361.681s32.015-14.241,32.73-14.387a3.615,3.615,0,0,1,2.621.263,3.089,3.089,0,0,1,1.489,2.1c.149.7.149,11.411.149,11.411a2.263,2.263,0,0,0,.834,1.021c.655.467,1.787,0,1.787,0l27.28-18.239a4.94,4.94,0,0,1,2.472-.321,2.93,2.93,0,0,1,2.263,2.451c.339,1.232.121,52.794.121,52.794h-9.393l-.185-38.038s-.5-2.121-2.567-.789S902.047,378.408,901.2,378.84c-1.445.587-2.725.879-4.035.241a3.682,3.682,0,0,1-1.551-2.573c0-.518-.048-14.827-.048-14.827s-.179-1.4-1.251-1.226-26.536,11.439-26.536,11.439Z" transform="translate(-826.609 -342.335)" fill="#fff"/>
  <path id="Tracé_3" data-name="Tracé 3" d="M696.941,686.071V674.2h7.721v1.243h-4.384v3.86h3.664v1.047h-3.664v5.72Z" transform="translate(-680.372 -629.576)" fill="#fff"/>
  <path id="Tracé_4" data-name="Tracé 4" d="M765.5,674.2h-7.524v11.778l7.985-.071V684.89h-4.779v-4.605h3.533v-1.243h-3.533v-3.664H765.5Z" transform="translate(-731.96 -629.576)" fill="#fff"/>
  <path id="Tracé_8" data-name="Tracé 8" d="M765.5,674.2h-7.524v11.778l7.985-.071V684.89h-4.779v-4.605h3.533v-1.243h-3.533v-3.664H765.5Z" transform="translate(-696.641 -629.576)" fill="#fff"/>
  <path id="Soustraction_1" data-name="Soustraction 1" d="M3.206,11.612H0L.054,0H6.522A5.116,5.116,0,0,1,7.9.576a3.555,3.555,0,0,1,.99.865A2.616,2.616,0,0,1,9.429,2.82a2.258,2.258,0,0,1-.312,1.393,2.948,2.948,0,0,1-.875.9,4.691,4.691,0,0,1-1.334.62l2.905,5.884H5.975L3.949,5.939H3.332l-.126,5.673ZM3.4,1.005V5.04H4.83A1.059,1.059,0,0,0,5.5,4.779a2.1,2.1,0,0,0,.57-1.643A2.19,2.19,0,0,0,5.393,1.33,1.446,1.446,0,0,0,4.707,1Z" transform="translate(36.188 44.788)" fill="#fff"/>
  <path id="Tracé_7" data-name="Tracé 7" d="M893.021,686.814V675.122h3.693l1.966,6.731,2.115-6.731H904.1v11.692h-3.306v-7.4l-2.115,7.4h-2.115l-2.263-7.4v7.4Z" transform="translate(-845.354 -630.334)" fill="#fff"/>
  <path id="Tracé_9" data-name="Tracé 9" d="M1034.11,676.128v-1.191h9.649v1.191h-3.009V686.82h-3.723V676.128Z" transform="translate(-963.785 -630.314)" fill="#fff"/>
  <path id="Soustraction_2" data-name="Soustraction 2" d="M9.739,11.5H6.224L5.748,9.173H2.025L1.46,11.5H0L3.514,0H6.522L9.739,11.5ZM3.991,2.918,2.5,7.892H5.45Z" transform="translate(80.436 44.952)" fill="#fff"/>
  <path id="Tracé_12" data-name="Tracé 12" d="M1169.748,674.941h3.633v10.692h4.765v1.161h-8.4Z" transform="translate(-1077.901 -630.317)" fill="#fff"/>
</svg>
