<svg xmlns="http://www.w3.org/2000/svg" width="59.785" height="59.785" viewBox="0 0 59.785 59.785">
  <g id="logo_google_svg" data-name="logo google svg" transform="translate(-1 -1)">
    <path id="Tracé_1171" data-name="Tracé 1171" d="M40.7,16.114A34.347,34.347,0,0,0,40.153,10H12V21.577H28.088a13.784,13.784,0,0,1-6.006,8.995V38.1h9.7C37.436,32.881,40.7,25.218,40.7,16.114Z" transform="translate(18.893 15.458)" fill="#4285f4"/>
    <path id="Tracé_1172" data-name="Tracé 1172" d="M28.866,38.286c8.071,0,14.838-2.663,19.783-7.229l-9.7-7.527A17.972,17.972,0,0,1,12.126,14.1H2.18v7.718A29.865,29.865,0,0,0,28.866,38.286Z" transform="translate(2.027 22.499)" fill="#34a853"/>
    <path id="Tracé_1173" data-name="Tracé 1173" d="M14.153,26.147a17.433,17.433,0,0,1,0-11.359V7.07H4.207a29.59,29.59,0,0,0,0,26.795l7.745-6.033Z" transform="translate(0 10.425)" fill="#fbbc05"/>
    <path id="Tracé_1174" data-name="Tracé 1174" d="M28.866,12.9a16.31,16.31,0,0,1,11.441,4.457l8.56-8.56a28.678,28.678,0,0,0-20-7.8A29.84,29.84,0,0,0,2.18,17.5l9.946,7.718A17.846,17.846,0,0,1,28.866,12.9Z" transform="translate(2.027)" fill="#ea4335"/>
    <path id="Tracé_1175" data-name="Tracé 1175" d="M1,1H60.785V60.785H1Z" fill="none"/>
  </g>
</svg>
