<svg id="phone-calling-svgrepo-com" xmlns="http://www.w3.org/2000/svg" width="20.892" height="22.302" viewBox="0 0 20.892 22.302">
  <path id="Tracé_743" data-name="Tracé 743" d="M17.119,15.984l-.512.539s-1.217,1.282-4.54-2.216S9.961,9.527,9.961,9.527l.323-.34a2.515,2.515,0,0,0,.176-3.159L9.042,4.023a2.252,2.252,0,0,0-3.5-.338L3.778,5.542A2.594,2.594,0,0,0,3,7.459c.1,1.888.908,5.951,5.411,10.692C13.19,23.178,17.671,23.378,19.5,23.2a2.407,2.407,0,0,0,1.49-.8l1.6-1.682a2.532,2.532,0,0,0-.605-3.875l-2.148-1.236A2.2,2.2,0,0,0,17.119,15.984Z" transform="translate(-3 -0.936)" fill="red"/>
  <path id="Tracé_744" data-name="Tracé 744" d="M13.26,1.921a.8.8,0,0,1,.918-.661c.027.005.114.021.159.032.091.02.218.051.376.1A9.471,9.471,0,0,1,16,1.876a13.68,13.68,0,0,1,3.94,2.8,13.679,13.679,0,0,1,2.8,3.94,9.458,9.458,0,0,1,.487,1.288c.046.158.077.285.1.376.01.045.018.082.023.109l.006.033a.816.816,0,0,1-.658.935.8.8,0,0,1-.916-.657c0-.012-.008-.043-.015-.072-.013-.059-.036-.153-.072-.276a7.88,7.88,0,0,0-.405-1.069,12.086,12.086,0,0,0-2.481-3.476,12.086,12.086,0,0,0-3.476-2.481,7.879,7.879,0,0,0-1.069-.405c-.124-.036-.279-.072-.338-.085A.809.809,0,0,1,13.26,1.921Z" transform="translate(-2.478 -1.25)" fill="red"/>
  <path id="Tracé_745" data-name="Tracé 745" d="M13.484,5.3a.706.706,0,0,1,.873-.485l-.194.679.194-.679h.006l.007,0,.019.006.053.018c.042.015.1.036.167.066a4.859,4.859,0,0,1,.555.286,9.417,9.417,0,0,1,1.829,1.465,9.414,9.414,0,0,1,1.465,1.829,4.865,4.865,0,0,1,.286.555c.029.069.051.124.066.167.008.021.013.039.018.053l.006.019,0,.007v0h0s0,0-.679.2l.679-.194a.706.706,0,0,1-1.355.4l0-.01c0-.014-.015-.042-.033-.083a3.456,3.456,0,0,0-.2-.392,8.024,8.024,0,0,0-1.248-1.55,8.023,8.023,0,0,0-1.55-1.248,3.449,3.449,0,0,0-.392-.2c-.041-.017-.069-.028-.083-.033l-.01,0A.706.706,0,0,1,13.484,5.3Z" transform="translate(-2.685 -0.07)" fill="red" fill-rule="evenodd"/>
</svg>
