<svg id="phone-calling-svgrepo-com" xmlns="http://www.w3.org/2000/svg" width="29" height="29.004" viewBox="0 0 29 29.004">
  <path id="Tracé_743" data-name="Tracé 743" d="M21.008,19.561l-.653.688s-1.553,1.635-5.791-2.827-2.685-6.1-2.685-6.1l.411-.433a3.208,3.208,0,0,0,.225-4.03L10.706,4.3a2.872,2.872,0,0,0-4.463-.432L3.992,6.243A3.308,3.308,0,0,0,3,8.688c.129,2.409,1.159,7.591,6.9,13.638C16,28.737,21.712,28.992,24.049,28.761a3.07,3.07,0,0,0,1.9-1.017L27.986,25.6a3.229,3.229,0,0,0-.772-4.943l-2.74-1.577A2.8,2.8,0,0,0,21.008,19.561Z" transform="translate(-3 0.19)" fill="#ed202b"/>
  <path id="Tracé_744" data-name="Tracé 744" d="M13.267,2.4a1.369,1.369,0,0,1,1.571-1.13c.046.009.195.037.272.054.156.035.373.088.643.167a16.2,16.2,0,0,1,2.2.833,23.4,23.4,0,0,1,6.74,4.8,23.4,23.4,0,0,1,4.8,6.74,16.177,16.177,0,0,1,.833,2.2c.079.271.132.487.167.643.017.078.03.14.039.186l.011.057a1.4,1.4,0,0,1-1.126,1.6,1.367,1.367,0,0,1-1.567-1.125c0-.02-.014-.073-.026-.124-.023-.1-.061-.261-.123-.473A13.479,13.479,0,0,0,27.009,15a20.674,20.674,0,0,0-4.245-5.947,20.674,20.674,0,0,0-5.946-4.245,13.478,13.478,0,0,0-1.829-.693c-.212-.062-.478-.123-.579-.145A1.383,1.383,0,0,1,13.267,2.4Z" transform="translate(-1.561 -1.25)" fill="#ed202b"/>
  <path id="Tracé_745" data-name="Tracé 745" d="M13.51,5.777a1.367,1.367,0,0,1,1.69-.939l-.375,1.315L15.2,4.838h.005l.006,0,.014,0,.036.011.1.035c.082.029.19.07.323.127a9.4,9.4,0,0,1,1.074.553A18.229,18.229,0,0,1,20.3,8.408a18.222,18.222,0,0,1,2.836,3.541,9.417,9.417,0,0,1,.553,1.074c.057.133.1.241.127.323.015.041.026.075.035.1l.011.036,0,.014,0,.006v0s0,0-1.314.378l1.315-.376a1.367,1.367,0,0,1-2.624.77l-.007-.02c-.01-.027-.03-.081-.063-.16a6.689,6.689,0,0,0-.393-.759,15.531,15.531,0,0,0-2.416-3,15.529,15.529,0,0,0-3-2.416,6.676,6.676,0,0,0-.759-.393c-.079-.034-.133-.054-.16-.064l-.02-.007A1.367,1.367,0,0,1,13.51,5.777Z" transform="translate(0.381 -0.107)" fill="#ed202b" fill-rule="evenodd"/>
</svg>
