<svg xmlns="http://www.w3.org/2000/svg" width="35.995" height="36" viewBox="0 0 35.995 36">
  <g id="phone-calling-svgrepo-com" transform="translate(-3 -1.25)">
    <path id="Tracé_743" data-name="Tracé 743" d="M25.887,24.049l-.83.874S23.084,27,17.7,21.33s-3.413-7.748-3.413-7.748l.523-.55a4.077,4.077,0,0,0,.286-5.122l-2.3-3.251a3.651,3.651,0,0,0-5.672-.549L4.261,7.122a4.205,4.205,0,0,0-1.256,3.107c.164,3.061,1.472,9.648,8.772,17.333,7.741,8.15,15,8.474,17.974,8.18a3.9,3.9,0,0,0,2.415-1.293l2.589-2.726a4.1,4.1,0,0,0-.981-6.282l-3.482-2A3.562,3.562,0,0,0,25.887,24.049Z" transform="translate(0 1.44)" fill="#fff"/>
    <path id="Tracé_744" data-name="Tracé 744" d="M13.267,2.4a1.369,1.369,0,0,1,1.571-1.13c.046.009.195.037.272.054.156.035.373.088.643.167a16.2,16.2,0,0,1,2.2.833,23.4,23.4,0,0,1,6.74,4.8,23.4,23.4,0,0,1,4.8,6.74,16.177,16.177,0,0,1,.833,2.2c.079.271.132.487.167.643.017.078.03.14.039.186l.011.057a1.4,1.4,0,0,1-1.126,1.6,1.367,1.367,0,0,1-1.567-1.125c0-.02-.014-.073-.026-.124-.023-.1-.061-.261-.123-.473A13.479,13.479,0,0,0,27.009,15a20.674,20.674,0,0,0-4.245-5.947,20.674,20.674,0,0,0-5.946-4.245,13.478,13.478,0,0,0-1.829-.693c-.212-.062-.478-.123-.579-.145A1.383,1.383,0,0,1,13.267,2.4Z" transform="translate(8.434 0)" fill="#fff"/>
    <path id="Tracé_745" data-name="Tracé 745" d="M13.51,5.777a1.367,1.367,0,0,1,1.69-.939l-.375,1.315L15.2,4.838h.005l.006,0,.014,0,.036.011.1.035c.082.029.19.07.323.127a9.4,9.4,0,0,1,1.074.553A18.229,18.229,0,0,1,20.3,8.408a18.222,18.222,0,0,1,2.836,3.541,9.417,9.417,0,0,1,.553,1.074c.057.133.1.241.127.323.015.041.026.075.035.1l.011.036,0,.014,0,.006v0s0,0-1.314.378l1.315-.376a1.367,1.367,0,0,1-2.624.77l-.007-.02c-.01-.027-.03-.081-.063-.16a6.689,6.689,0,0,0-.393-.759,15.531,15.531,0,0,0-2.416-3,15.529,15.529,0,0,0-3-2.416,6.676,6.676,0,0,0-.759-.393c-.079-.034-.133-.054-.16-.064l-.02-.007A1.367,1.367,0,0,1,13.51,5.777Z" transform="translate(8.604 2.909)" fill="#fff" fill-rule="evenodd"/>
  </g>
</svg>
