<svg id="phone-calling-svgrepo-com" xmlns="http://www.w3.org/2000/svg" width="34.499" height="34.504" viewBox="0 0 34.499 34.504">
  <path id="Tracé_1" data-name="Tracé 1" d="M24.936,23.175l-.8.838S22.249,26,17.087,20.568s-3.271-7.426-3.271-7.426l.5-.528a3.908,3.908,0,0,0,.274-4.909l-2.2-3.116a3.5,3.5,0,0,0-5.437-.526L4.209,6.95a4.03,4.03,0,0,0-1.2,2.978c.157,2.934,1.411,9.247,8.408,16.613,7.419,7.811,14.381,8.122,17.228,7.841a3.739,3.739,0,0,0,2.315-1.239l2.482-2.613A3.934,3.934,0,0,0,32.5,24.51l-3.338-1.921A3.414,3.414,0,0,0,24.936,23.175Z" transform="translate(-3 0.057)" fill="#fff"/>
  <path id="Tracé_2" data-name="Tracé 2" d="M13.267,2.35a1.312,1.312,0,0,1,1.505-1.083c.044.008.187.035.261.052.149.033.357.084.616.16a15.527,15.527,0,0,1,2.112.8,22.428,22.428,0,0,1,6.46,4.6,22.426,22.426,0,0,1,4.6,6.46,15.5,15.5,0,0,1,.8,2.112c.075.259.127.467.16.616.017.075.029.134.037.179l.01.055a1.337,1.337,0,0,1-1.079,1.533,1.31,1.31,0,0,1-1.5-1.078c0-.019-.014-.07-.024-.119-.022-.1-.059-.25-.118-.453a12.919,12.919,0,0,0-.665-1.753,19.815,19.815,0,0,0-4.068-5.7,19.815,19.815,0,0,0-5.7-4.068,12.918,12.918,0,0,0-1.753-.665c-.2-.059-.458-.118-.555-.139A1.326,1.326,0,0,1,13.267,2.35Z" transform="translate(4.657 -1.25)" fill="#fff"/>
  <path id="Tracé_3" data-name="Tracé 3" d="M13.507,5.736a1.31,1.31,0,0,1,1.62-.9l-.36,1.26.36-1.26h.005l.006,0,.014,0,.035.011.1.033c.078.028.182.067.309.122a9.014,9.014,0,0,1,1.03.53,17.471,17.471,0,0,1,3.394,2.718,17.465,17.465,0,0,1,2.718,3.394,9.025,9.025,0,0,1,.53,1.029c.055.127.094.231.122.309.014.039.025.072.033.1l.011.035,0,.014,0,.006v0s0,0-1.259.362l1.26-.36a1.31,1.31,0,0,1-2.515.738l-.006-.019c-.009-.026-.028-.078-.061-.153a6.411,6.411,0,0,0-.377-.727,14.885,14.885,0,0,0-2.316-2.876,14.884,14.884,0,0,0-2.875-2.316,6.4,6.4,0,0,0-.727-.377c-.075-.032-.127-.052-.153-.061L14.39,7.35A1.31,1.31,0,0,1,13.507,5.736Z" transform="translate(4.812 1.391)" fill="#fff" fill-rule="evenodd"/>
</svg>
